# Blender v2.82 (sub 7) OBJ File: 'Citrine_Low_Poly.blend'
# www.blender.org
mtllib Citrine_Low_Poly.mtl
o Citrine_-_Marquise_Cut_dmesh.001
v 0.766311 0.861829 0.000000
v 0.712105 0.861829 -0.441730
v 0.589760 0.861829 -0.827297
v 0.342632 0.861829 -1.226580
v -0.000000 0.861829 -1.506297
v -0.342632 0.861829 -1.226580
v -0.589760 0.861829 -0.827297
v -0.712105 0.861829 -0.441730
v -0.766311 0.861829 0.000000
v -0.712105 0.861829 0.441730
v -0.589760 0.861829 0.827297
v -0.342632 0.861829 1.226580
v 0.000000 0.861829 1.506297
v 0.342632 0.861829 1.226580
v 0.589760 0.861829 0.827297
v 0.712105 0.861829 0.441730
v 0.766311 0.924152 0.000000
v 0.712105 0.924152 -0.441730
v 0.589760 0.924152 -0.827297
v 0.342632 0.924152 -1.226580
v -0.000000 0.924152 -1.506297
v -0.342632 0.924152 -1.226580
v -0.589760 0.924152 -0.827297
v -0.712105 0.924152 -0.441730
v -0.766311 0.924152 0.000000
v -0.712105 0.924152 0.441730
v -0.589760 0.924152 0.827297
v -0.342632 0.924152 1.226580
v 0.000000 0.924152 1.506297
v 0.342632 0.924152 1.226580
v 0.589760 0.924152 0.827297
v 0.712105 0.924152 0.441730
v -0.418380 0.911453 1.133896
v -0.418380 0.874528 1.133896
v -0.543669 0.911453 0.934255
v -0.543669 0.874528 0.934255
v -0.629213 0.911453 0.730905
v -0.629213 0.874528 0.730905
v -0.689428 0.874528 0.538121
v -0.689428 0.911453 0.538121
v -0.734171 0.911453 0.331297
v -0.734171 0.874528 0.331297
v -0.761400 0.911453 0.110433
v -0.761400 0.874528 0.110433
v -0.761400 0.911453 -0.110432
v -0.761400 0.874528 -0.110432
v -0.734171 0.874528 -0.331297
v -0.734171 0.911453 -0.331297
v -0.689428 0.911453 -0.538121
v -0.689428 0.874528 -0.538121
v -0.629213 0.911453 -0.730905
v -0.629213 0.874528 -0.730905
v -0.543669 0.911453 -0.934254
v -0.543669 0.874528 -0.934254
v -0.418380 0.874528 -1.133896
v -0.418380 0.911453 -1.133896
v 0.418380 0.911453 -1.133896
v 0.418380 0.874528 -1.133896
v 0.543669 0.911453 -0.934254
v 0.543669 0.874528 -0.934254
v 0.629213 0.911453 -0.730905
v 0.629213 0.874528 -0.730905
v 0.689428 0.874528 -0.538121
v 0.689428 0.911453 -0.538121
v 0.734171 0.911453 -0.331297
v 0.734171 0.874528 -0.331297
v 0.761400 0.911453 -0.110432
v 0.761400 0.874528 -0.110432
v 0.761400 0.911453 0.110432
v 0.761400 0.874528 0.110432
v 0.734171 0.874528 0.331297
v 0.734171 0.911453 0.331297
v 0.689428 0.911453 0.538121
v 0.689428 0.874528 0.538121
v 0.629213 0.911453 0.730905
v 0.629213 0.874528 0.730905
v 0.543669 0.911453 0.934255
v 0.543669 0.874528 0.934255
v 0.418380 0.874528 1.133896
v 0.418380 0.911453 1.133896
v 0.485179 0.907245 -1.041212
v 0.485179 0.878737 -1.041212
v 0.660380 0.907245 -0.634513
v 0.660380 0.878737 -0.634513
v 0.749453 0.907245 -0.220865
v 0.749453 0.878737 -0.220865
v 0.749453 0.907245 0.220865
v 0.749453 0.878737 0.220865
v 0.660380 0.907245 0.634513
v 0.660380 0.878737 0.634513
v 0.485179 0.907245 1.041212
v 0.485179 0.878737 1.041212
v -0.485179 0.907245 1.041212
v -0.485179 0.878737 1.041212
v -0.660380 0.907245 0.634513
v -0.660380 0.878737 0.634513
v -0.749453 0.907245 0.220865
v -0.749453 0.878737 0.220865
v -0.749453 0.907245 -0.220865
v -0.749453 0.878737 -0.220865
v -0.660380 0.907245 -0.634513
v -0.660380 0.878737 -0.634513
v -0.485179 0.907245 -1.041212
v -0.485179 0.878737 -1.041212
v 0.496186 1.167152 -0.403994
v 0.205527 1.167152 -0.975327
v -0.205527 1.167152 -0.975327
v -0.496186 1.167152 -0.403994
v -0.496186 1.167152 0.403994
v -0.205527 1.167152 0.975327
v 0.205527 1.167152 0.975327
v 0.496186 1.167152 0.403994
v 0.406145 1.248152 0.000000
v 0.287188 1.248152 -0.564510
v -0.000000 1.248152 -0.798337
v -0.287188 1.248152 -0.564510
v -0.406145 1.248152 0.000000
v -0.287188 1.248152 0.564510
v 0.000000 1.248152 0.798337
v 0.287188 1.248152 0.564510
v 0.000000 -0.000171 0.000000
v -0.267336 0.911453 -1.306461
v -0.267336 0.874528 -1.306461
v -0.093564 0.911453 -1.446966
v -0.093564 0.874528 -1.446966
v -0.184402 0.907245 -1.380689
v -0.184402 0.878737 -1.380689
v 0.267336 0.911453 -1.306461
v 0.267336 0.874528 -1.306461
v 0.093564 0.911453 -1.446966
v 0.093564 0.874528 -1.446966
v 0.184402 0.907245 -1.380689
v 0.184402 0.878737 -1.380689
v -0.267336 0.911453 1.306461
v -0.267336 0.874528 1.306461
v -0.093564 0.911453 1.446966
v -0.093564 0.874528 1.446966
v -0.184402 0.907245 1.380689
v -0.184402 0.878737 1.380689
v 0.267336 0.911453 1.306461
v 0.267336 0.874528 1.306461
v 0.093564 0.911453 1.446966
v 0.093564 0.874528 1.446966
v 0.184402 0.907245 1.380688
v 0.184402 0.878737 1.380688
v -0.000000 0.344629 -0.638806
v 0.324985 0.344629 0.000000
v -0.250112 0.344629 -0.350848
v -0.324985 0.344629 0.000000
v -0.250112 0.344629 0.350848
v 0.250112 0.344629 -0.350848
v 0.250111 0.344629 0.350849
v 0.000000 0.344629 0.638806
vn 0.7743 0.0000 -0.6328
vn 0.8774 0.0000 -0.4798
vn -0.7277 0.0000 -0.6859
vn 0.9575 0.0000 -0.2885
vn -0.9184 0.0000 -0.3957
vn 0.9942 0.0000 -0.1076
vn -0.9734 0.0000 -0.2290
vn 0.9906 0.0000 0.1371
vn -0.9990 0.0000 -0.0444
vn 0.9515 0.0000 0.3077
vn -0.9806 0.0000 0.1959
vn 0.8113 0.0000 0.5847
vn -0.9255 0.0000 0.3788
vn -0.7743 0.0000 0.6328
vn -0.8774 0.0000 0.4798
vn -0.9575 0.0000 0.2885
vn 0.9184 0.0000 0.3957
vn -0.9942 0.0000 0.1076
vn 0.9734 0.0000 0.2290
vn -0.9906 0.0000 -0.1371
vn 0.9990 0.0000 0.0444
vn -0.9515 0.0000 -0.3077
vn -0.8113 0.0000 -0.5847
vn 0.9806 0.0000 -0.1959
vn -0.8113 0.0000 0.5847
vn -0.9515 0.0000 0.3077
vn -0.9184 0.0000 0.3957
vn -0.9906 0.0000 0.1371
vn -0.9734 0.0000 0.2290
vn -0.9942 0.0000 -0.1076
vn -0.9990 0.0000 0.0444
vn -0.9575 0.0000 -0.2885
vn -0.9806 0.0000 -0.1959
vn -0.8774 0.0000 -0.4798
vn -0.9255 0.0000 -0.3788
vn -0.7743 0.0000 -0.6328
vn -0.5355 0.0000 -0.8445
vn 0.8113 0.0000 -0.5847
vn 0.9515 0.0000 -0.3077
vn 0.9184 0.0000 -0.3957
vn 0.9906 0.0000 -0.1371
vn 0.9734 0.0000 -0.2290
vn 0.9942 0.0000 0.1076
vn 0.9990 0.0000 -0.0444
vn 0.9575 0.0000 0.2885
vn 0.9806 0.0000 0.1959
vn 0.8774 0.0000 0.4798
vn 0.9255 0.0000 0.3788
vn 0.7743 0.0000 0.6328
vn 0.4181 0.9041 -0.0881
vn 0.5706 0.7683 -0.2903
vn 0.1833 0.9569 -0.2251
vn 0.0000 0.9093 -0.4161
vn -0.1833 0.9569 -0.2251
vn -0.5706 0.7683 -0.2903
vn -0.4181 0.9041 -0.0881
vn -0.6688 0.7434 0.0000
vn -0.4181 0.9041 0.0881
vn -0.5706 0.7683 0.2903
vn -0.1833 0.9569 0.2251
vn 0.0000 0.9093 0.4161
vn 0.1833 0.9569 0.2251
vn 0.5706 0.7683 0.2903
vn 0.4181 0.9041 0.0881
vn 0.6688 0.7434 -0.0000
vn 0.0000 1.0000 -0.0000
vn 0.9255 0.0000 -0.3788
vn 0.7193 0.6562 0.2281
vn 0.5867 0.7237 0.3633
vn 0.4142 0.7556 0.5075
vn -0.5894 0.0000 -0.8078
vn -0.6669 0.0000 -0.7451
vn 0.5894 0.0000 -0.8078
vn 0.6669 0.0000 -0.7451
vn -0.5894 0.0000 0.8078
vn -0.6669 0.0000 0.7451
vn 0.5894 0.0000 0.8078
vn 0.6669 0.0000 0.7451
vn 0.7277 0.0000 -0.6859
vn 0.5355 0.0000 -0.8445
vn -0.7277 0.0000 0.6859
vn -0.5355 0.0000 0.8445
vn 0.5355 0.0000 0.8445
vn 0.7277 0.0000 0.6859
vn 0.7451 0.6607 0.0914
vn 0.7451 0.6607 -0.0914
vn 0.7193 0.6562 -0.2281
vn 0.5867 0.7237 -0.3633
vn 0.4142 0.7556 -0.5075
vn -0.4142 0.7556 0.5075
vn -0.5867 0.7237 0.3633
vn -0.7193 0.6562 0.2281
vn -0.7451 0.6607 0.0914
vn -0.7451 0.6607 -0.0914
vn -0.7193 0.6562 -0.2281
vn -0.5867 0.7237 -0.3633
vn -0.4142 0.7556 -0.5075
vn 0.4755 -0.7767 0.4130
vn 0.7216 -0.6750 0.1540
vn 0.7216 -0.6750 -0.1540
vn 0.4755 -0.7767 -0.4130
vn -0.4755 -0.7767 -0.4130
vn -0.7216 -0.6750 -0.1540
vn -0.7216 -0.6750 0.1540
vn -0.4755 -0.7767 0.4130
vn -0.3871 -0.7907 0.4742
vn 0.3871 -0.7907 0.4742
vn 0.5850 -0.7257 0.3622
vn 0.7112 -0.6658 0.2256
vn 0.7604 -0.6427 0.0933
vn 0.7604 -0.6427 -0.0933
vn 0.7112 -0.6658 -0.2256
vn 0.5850 -0.7257 -0.3622
vn 0.3871 -0.7907 -0.4742
vn -0.3871 -0.7907 -0.4742
vn -0.5850 -0.7257 -0.3622
vn -0.7112 -0.6658 -0.2256
vn -0.7604 -0.6427 -0.0933
vn -0.7604 -0.6427 0.0933
vn -0.7112 -0.6658 0.2256
vn -0.5850 -0.7257 0.3622
usemtl Citrine
s off
f 58//1 4//1 20//1 57//1
f 60//2 82//2 81//2 59//2
f 22//3 122//3 123//3 6//3
f 63//4 84//4 83//4 64//4
f 54//5 7//5 23//5 53//5
f 68//6 86//6 85//6 67//6
f 50//7 8//7 24//7 49//7
f 72//8 71//8 88//8 87//8
f 46//9 9//9 25//9 45//9
f 76//10 90//10 89//10 75//10
f 42//11 10//11 26//11 41//11
f 79//12 92//12 91//12 80//12
f 38//13 11//13 27//13 37//13
f 34//14 12//14 28//14 33//14
f 36//15 94//15 93//15 35//15
f 39//16 96//16 95//16 40//16
f 78//17 15//17 31//17 77//17
f 44//18 98//18 97//18 43//18
f 74//19 16//19 32//19 73//19
f 47//20 100//20 99//20 48//20
f 69//21 70//21 1//21 17//21
f 52//22 102//22 101//22 51//22
f 55//23 104//23 103//23 56//23
f 66//24 2//24 18//24 65//24
f 94//25 34//25 33//25 93//25
f 96//26 38//26 37//26 95//26
f 11//27 36//27 35//27 27//27
f 98//28 42//28 41//28 97//28
f 10//29 39//29 40//29 26//29
f 100//30 46//30 45//30 99//30
f 9//31 44//31 43//31 25//31
f 102//32 50//32 49//32 101//32
f 8//33 47//33 48//33 24//33
f 104//34 54//34 53//34 103//34
f 7//35 52//35 51//35 23//35
f 6//36 55//36 56//36 22//36
f 21//37 5//37 125//37 124//37
f 82//38 58//38 57//38 81//38
f 84//39 62//39 61//39 83//39
f 3//40 60//40 59//40 19//40
f 86//41 66//41 65//41 85//41
f 2//42 63//42 64//42 18//42
f 87//43 88//43 70//43 69//43
f 1//44 68//44 67//44 17//44
f 90//45 74//45 73//45 89//45
f 32//46 16//46 71//46 72//46
f 92//47 78//47 77//47 91//47
f 15//48 76//48 75//48 31//48
f 14//49 79//49 80//49 30//49
f 113//50 105//50 114//50
f 114//51 105//51 19//51 106//51
f 114//52 106//52 115//52
f 115//53 106//53 21//53 107//53
f 115//54 107//54 116//54
f 116//55 107//55 23//55 108//55
f 116//56 108//56 117//56
f 117//57 108//57 25//57 109//57
f 117//58 109//58 118//58
f 118//59 109//59 27//59 110//59
f 118//60 110//60 119//60
f 119//61 110//61 29//61 111//61
f 119//62 111//62 120//62
f 120//63 111//63 31//63 112//63
f 120//64 112//64 113//64
f 17//65 105//65 113//65 112//65
f 113//66 114//66 115//66 116//66 117//66 118//66 119//66 120//66
f 62//67 3//67 19//67 61//67
f 31//68 75//68 89//68 73//68 32//68 112//68
f 80//69 91//69 77//69 31//69 111//69 30//69
f 30//70 111//70 29//70 142//70 144//70 140//70
f 125//71 127//71 126//71 124//71
f 127//72 123//72 122//72 126//72
f 131//73 130//73 132//73 133//73
f 133//74 132//74 128//74 129//74
f 137//75 136//75 138//75 139//75
f 139//76 138//76 134//76 135//76
f 143//77 145//77 144//77 142//77
f 145//78 141//78 140//78 144//78
f 20//79 4//79 129//79 128//79
f 21//80 130//80 131//80 5//80
f 28//81 12//81 135//81 134//81
f 29//82 136//82 137//82 13//82
f 29//83 13//83 143//83 142//83
f 30//84 140//84 141//84 14//84
f 72//85 87//85 69//85 17//85 112//85 32//85
f 67//86 85//86 65//86 18//86 105//86 17//86
f 64//87 83//87 61//87 19//87 105//87 18//87
f 59//88 81//88 57//88 20//88 106//88 19//88
f 20//89 128//89 132//89 130//89 21//89 106//89
f 28//90 134//90 138//90 136//90 29//90 110//90
f 33//91 28//91 110//91 27//91 35//91 93//91
f 40//92 95//92 37//92 27//92 109//92 26//92
f 43//93 97//93 41//93 26//93 109//93 25//93
f 48//94 99//94 45//94 25//94 108//94 24//94
f 51//95 101//95 49//95 24//95 108//95 23//95
f 56//96 103//96 53//96 23//96 107//96 22//96
f 122//97 22//97 107//97 21//97 124//97 126//97
f 121//98 152//98 14//98 153//98
f 121//99 147//99 16//99 152//99
f 121//100 151//100 2//100 147//100
f 121//101 146//101 4//101 151//101
f 121//102 148//102 6//102 146//102
f 121//103 149//103 8//103 148//103
f 121//104 150//104 10//104 149//104
f 121//105 153//105 12//105 150//105
f 137//106 139//106 135//106 12//106 153//106 13//106
f 143//107 13//107 153//107 14//107 141//107 145//107
f 79//108 14//108 152//108 15//108 78//108 92//108
f 74//109 90//109 76//109 15//109 152//109 16//109
f 71//110 16//110 147//110 1//110 70//110 88//110
f 68//111 1//111 147//111 2//111 66//111 86//111
f 63//112 2//112 151//112 3//112 62//112 84//112
f 60//113 3//113 151//113 4//113 58//113 82//113
f 131//114 133//114 129//114 4//114 146//114 5//114
f 123//115 127//115 125//115 5//115 146//115 6//115
f 55//116 6//116 148//116 7//116 54//116 104//116
f 52//117 7//117 148//117 8//117 50//117 102//117
f 47//118 8//118 149//118 9//118 46//118 100//118
f 44//119 9//119 149//119 10//119 42//119 98//119
f 38//120 96//120 39//120 10//120 150//120 11//120
f 34//121 94//121 36//121 11//121 150//121 12//121
